<svg
   xmlns:svg="http://www.w3.org/2000/svg"
   viewBox="0 0 200 203.61"
  ><path
          d="M 156.6432,120.0259 V 42.69539 h -20.919 v 77.32399 H 89.7068 V 33.71417 L 59.5311,18.71697 V 120.01821 H 7.014 c -3.9155,0.42164 -7.1249,-2.69371 -7.0107,-5.97764 0.1086,-3.15252 3.2626,-5.97764 7.0107,-5.55818 13.6112,0 27.2246,0 40.8359,0 V 0 l 53.5303,26.60538 v 81.87809 h 22.6706 V 31.16064 h 44.2769 v 77.31406 l 25.8744,-0.0359 c 3.3369,0.0997 5.931,2.8963 5.7869,6.03462 -0.1331,2.94442 -2.6495,5.40714 -5.7758,5.50129 -12.516,0.0167 -25.0429,0.0351 -37.57,0.0518"
     /><path
     d="M 15.1444,202.06607 C 11.2089,201.03675 7.7257,199.59132 4.6926,197.71882 2.9865,196.59101 1.777,195.53981 1.0664,194.56521 0.3558,193.57976 0,192.3862 0,190.98454 c 0,-1.21545 0.3558,-2.22287 1.0664,-3.0222 0.7106,-0.78838 1.6352,-1.19356 2.7738,-1.19356 1.1374,0 2.7947,0.70083 4.9764,2.10241 2.8435,1.68628 5.6637,3.0222 8.4607,4.00774 2.7947,0.98553 6.2791,1.46732 10.4517,1.46732 5.1195,0 9.1004,-0.88696 11.9451,-2.66088 2.8435,-1.77392 4.2658,-4.35811 4.2658,-7.71982 0,-2.05863 -0.5221,-3.72303 -1.5642,-4.98225 -1.0443,-1.27025 -2.8435,-2.38711 -5.4043,-3.37265 -2.5587,-0.98554 -6.3046,-1.98194 -11.2323,-3.01125 -8.3443,-1.78487 -14.3174,-4.17198 -17.918,-7.16135 -3.6041,-2.98936 -5.4044,-7.06276 -5.4044,-12.20934 0,-4.01868 1.1385,-7.57746 3.4144,-10.6654 2.2738,-3.08786 5.4244,-5.52978 9.4552,-7.30362 4.0286,-1.77392 8.6037,-2.66088 13.7231,-2.66088 3.6972,0 7.2735,0.49273 10.7356,1.46732 3.4588,0.98546 6.5163,2.36515 9.1725,4.13907 3.2215,2.24476 4.8345,4.5881 4.8345,7.01899 0,1.21544 -0.3803,2.24476 -1.1374,3.08794 -0.7605,0.84318 -1.6596,1.27025 -2.7027,1.27025 -1.1364,0 -2.8435,-0.79941 -5.1184,-2.38712 -2.6551,-1.68636 -5.1682,-3.00039 -7.5373,-3.93112 -2.3701,-0.93074 -5.3101,-1.40158 -8.8166,-1.40158 -4.4564,0 -8.0338,0.97451 -10.7366,2.94559 -2.7005,1.96005 -4.0519,4.58801 -4.0519,7.85115 0,2.06957 0.4977,3.72302 1.4933,4.99327 0.9955,1.25922 2.6529,2.37617 4.9764,3.36163 2.3225,0.98554 5.6649,1.9491 10.0261,2.87992 6.4453,1.40158 11.4462,2.94551 15.0013,4.63188 3.5553,1.68628 6.0906,3.74491 7.6083,6.1758 1.5154,2.43089 2.2748,5.51884 2.2748,9.26375 0,5.89118 -2.512,10.64344 -7.5361,14.24608 -5.0264,3.60256 -11.6602,5.39837 -19.908,5.39837 -4.3612,0 -8.5096,-0.5147 -12.4428,-1.54393" /><path
     d="m 117.6986,187.26151 c 3.7026,-4.63187 5.554,-11.11427 5.554,-19.43634 0,-8.14689 -1.8514,-14.4541 -5.554,-18.94362 -3.6916,-4.50046 -8.913,-6.74522 -15.6421,-6.74522 -6.7292,0 -11.9174,2.24476 -15.5647,6.74522 -3.6582,4.48952 -5.4764,10.89531 -5.4764,19.22833 0,8.32207 1.8182,14.74975 5.4764,19.29399 3.6473,4.54432 8.8355,6.80002 15.5647,6.80002 6.7291,0 11.9505,-2.3105 15.6421,-6.94238 z m 2.7049,-50.31553 c 4.645,2.90173 8.2479,7.01899 10.8088,12.35169 2.5608,5.33262 3.8357,11.50851 3.8357,18.5275 0,7.10662 -1.2749,13.35903 -3.8357,18.7356 -2.5609,5.38742 -6.1638,9.57034 -10.8088,12.55971 -4.645,3.00031 -9.9994,4.48952 -16.0634,4.48952 -5.4098,0 -10.1213,-1.16073 -14.1566,-3.50407 -4.0242,-2.34325 -7.0839,-5.66119 -9.1681,-9.96449 v 7.57738 c 0,1.68637 -0.4988,3.04417 -1.4965,4.07348 -0.9978,1.02932 -2.3946,1.54393 -4.1905,1.54393 -1.807,0 -3.226,-0.51461 -4.268,-1.54393 -1.0421,-1.02931 -1.5632,-2.38711 -1.5632,-4.07348 V 108.4539 c 0,-1.58996 0.5211,-2.89847 1.5632,-3.92887 1.042,-1.02932 2.461,-1.5451 4.268,-1.5451 1.7959,0 3.1927,0.49273 4.1905,1.47283 0.9977,0.9822 1.4965,2.31811 1.4965,4.00114 v 37.61347 c 2.0842,-4.30339 5.1439,-7.62124 9.1681,-9.96458 4.0353,-2.33231 8.7468,-3.50398 14.1566,-3.50398 6.064,0 11.4184,1.44535 16.0634,4.34717"
     /><path
     d="m 160.1131,202.06607 c -3.9355,-1.02932 -7.4276,-2.47475 -10.4539,-4.34725 -1.7073,-1.12781 -2.9156,-2.17901 -3.6252,-3.15361 -0.7205,-0.98545 -1.0753,-2.17901 -1.0753,-3.58067 0,-1.21545 0.3548,-2.22287 1.0753,-3.0222 0.7096,-0.78838 1.6297,-1.19356 2.7715,-1.19356 1.1308,0 2.7937,0.70083 4.9776,2.10241 2.838,1.68628 5.6649,3.0222 8.4585,4.00774 2.7936,0.98553 6.2745,1.46732 10.4539,1.46732 5.1217,0 9.1016,-0.88696 11.9395,-2.66088 2.8491,-1.77392 4.2681,-4.35811 4.2681,-7.71982 0,-2.05863 -0.521,-3.72303 -1.5631,-4.98225 -1.0421,-1.27025 -2.8491,-2.38711 -5.3988,-3.37265 -2.5609,-0.98554 -6.3079,-1.98194 -11.2411,-3.01125 -8.3365,-1.78487 -14.3118,-4.17198 -17.9147,-7.16135 -3.6029,-2.98936 -5.3989,-7.06276 -5.3989,-12.20934 0,-4.01868 1.1308,-7.57746 3.4034,-10.6654 2.2837,-3.08786 5.432,-5.52978 9.4562,-7.30362 4.0352,-1.77392 8.6026,-2.66088 13.7243,-2.66088 3.7027,0 7.2724,0.49273 10.7422,1.46732 3.4588,0.98546 6.5074,2.36515 9.168,4.13907 3.226,2.24476 4.8334,4.5881 4.8334,7.01899 0,1.21544 -0.3769,2.24476 -1.1418,3.08794 -0.7538,0.84318 -1.6518,1.27025 -2.6939,1.27025 -1.1418,0 -2.849,-0.79941 -5.1217,-2.38712 -2.6495,-1.68636 -5.1659,-3.00039 -7.5383,-3.93112 -2.3724,-0.93074 -5.3102,-1.40158 -8.8132,-1.40158 -4.4566,0 -8.0373,0.97451 -10.7423,2.94559 -2.6938,1.96005 -4.0463,4.58801 -4.0463,7.85115 0,2.06957 0.4989,3.72302 1.4966,4.99327 0.9866,1.25922 2.6495,2.37617 4.9665,3.36163 2.328,0.98554 5.6648,1.9491 10.0326,2.87992 6.4409,1.40158 11.4407,2.94551 14.9992,4.63188 3.5586,1.68628 6.0862,3.74491 7.6049,6.1758 1.5188,2.43089 2.2837,5.51884 2.2837,9.26375 0,5.89118 -2.5164,10.64344 -7.5384,14.24608 -5.0329,3.60256 -11.6623,5.39837 -19.9102,5.39837 -4.3678,0 -8.5139,-0.5147 -12.4383,-1.54393"
      /></svg>